HIERARCHY
ROOT Hips
{
	OFFSET 0.000000 0.000000 0.000000
	CHANNELS 6 Xposition Yposition Zposition Zrotation Yrotation Xrotation 
	JOINT LowerBack
	{
		OFFSET 0.000000 0.000000 0.000000
		CHANNELS 3 Zrotation Yrotation Xrotation
		JOINT Spine
		{
			OFFSET 0.028270 2.035590 -0.193380
			CHANNELS 3 Zrotation Yrotation Xrotation
			JOINT Spine1
			{
				OFFSET 0.056720 2.048850 -0.042750
				CHANNELS 3 Zrotation Yrotation Xrotation
				JOINT Neck
				{
					OFFSET 0.000000 0.000000 0.000000
					CHANNELS 3 Zrotation Yrotation Xrotation
					JOINT Neck1
					{
						OFFSET -0.054170 1.746240 0.172020
						CHANNELS 3 Zrotation Yrotation Xrotation
						JOINT Head
						{
							OFFSET 0.104070 1.761360 -0.123970
							CHANNELS 3 Zrotation Yrotation Xrotation
							End Site
							{
								OFFSET 0.000000 0.000000 0.000000
							}
						}
					}
				}
				JOINT LeftShoulder
				{
					OFFSET 0.000000 0.000000 0.000000
					CHANNELS 3 Zrotation Yrotation Xrotation
					JOINT LeftArm
					{
						OFFSET 3.362410 1.200890 -0.311210
						CHANNELS 3 Zrotation Yrotation Xrotation
						JOINT LeftForeArm
						{
							OFFSET 4.983000 -0.000000 -0.000000
							CHANNELS 3 Zrotation Yrotation Xrotation
							JOINT LeftHand
							{
								OFFSET 3.483560 -0.000000 -0.000000
								CHANNELS 3 Zrotation Yrotation Xrotation
								JOINT LeftFingerBase
								{
									OFFSET 0.000000 0.000000 0.000000
									CHANNELS 3 Zrotation Yrotation Xrotation
									JOINT LeftHandIndex1
									{
										OFFSET 0.715260 -0.000000 -0.000000
										CHANNELS 3 Zrotation Yrotation Xrotation
										End Site
										{
											OFFSET 0.000000 0.000000 0.000000
										}
									}
								}
								JOINT LThumb
								{
									OFFSET 0.000000 0.000000 0.000000
									CHANNELS 3 Zrotation Yrotation Xrotation
									End Site
									{
										OFFSET 0.000000 0.000000 0.000000
									}
								}
							}
						}
					}
				}
				JOINT RightShoulder
				{
					OFFSET 0.000000 0.000000 0.000000
					CHANNELS 3 Zrotation Yrotation Xrotation
					JOINT RightArm
					{
						OFFSET -3.136600 1.374050 -0.404650
						CHANNELS 3 Zrotation Yrotation Xrotation
						JOINT RightForeArm
						{
							OFFSET -5.241900 -0.000000 -0.000000
							CHANNELS 3 Zrotation Yrotation Xrotation
							JOINT RightHand
							{
								OFFSET -3.444170 -0.000000 -0.000000
								CHANNELS 3 Zrotation Yrotation Xrotation
								JOINT RightFingerBase
								{
									OFFSET 0.000000 0.000000 0.000000
									CHANNELS 3 Zrotation Yrotation Xrotation
									JOINT RightHandIndex1
									{
										OFFSET -0.622530 -0.000000 -0.000000
										CHANNELS 3 Zrotation Yrotation Xrotation
										End Site
										{
											OFFSET 0.000000 0.000000 0.000000
										}
									}
								}
								JOINT RThumb
								{
									OFFSET 0.000000 0.000000 0.000000
									CHANNELS 3 Zrotation Yrotation Xrotation
									End Site
									{
										OFFSET 0.000000 0.000000 0.000000
									}
								}
							}
						}
					}
				}
			}
		}
	}
}
}
MOTION
Frames: 10
Frame Time: 0.008333
2.497940 17.269352 1.960596 -5.508561 -71.059709 12.111534 -1.857190 -1.907939 -4.916272 -0.972947 -1.913670 -3.122394 -5.535896 -1.942246 2.929069 10.987173 -15.465136 -5.726217 -2.117702 -0.191717 0.510039 0.000000 0.000000 0.000000 -2.147538 13.445756 -0.752181 -58.284248 -2.307681 -10.699906 -1.909834 -53.145431 -0.016438 16.136527 -7.980974 -1.171970 -0.213594 0.180940 -0.000000 0.000000 0.000000 0.000000 0.000000 0.000000 0.000000 10.851892 -13.114429 -0.858080 57.344514 -6.226702 -28.750559 1.684206 48.337097 -0.003761 -12.930604 13.037584 -1.527059 0.176716 -0.209403 -0.000000 0.000000 0.000000 0.000000 0.000000 0.000000 0.000000 
2.508063 17.279976 2.005941 -5.996963 -71.231337 12.467500 -1.572364 -2.016403 -4.817502 -0.905871 -2.042471 -3.092008 -5.518614 -2.068015 2.978930 10.931129 -15.722304 -5.787587 -2.155774 -0.193966 0.494800 0.000000 0.000000 0.000000 -2.162466 13.521975 -0.747850 -58.479584 -1.861901 -11.334365 -1.941541 -52.927535 -0.015675 16.134271 -7.933610 -1.164389 -0.212911 0.177060 -0.000000 0.000000 0.000000 0.000000 0.000000 0.000000 0.000000 11.070278 -13.445589 -0.898157 57.319448 -6.490872 -28.911782 1.709407 48.179498 -0.003115 -12.870211 12.967890 -1.512072 0.178884 -0.208507 -0.000000 0.000000 0.000000 0.000000 0.000000 0.000000 0.000000 
2.518221 17.291539 2.050152 -6.470929 -71.519382 12.915459 -1.281910 -2.127468 -4.771750 -0.836753 -2.175103 -3.073948 -5.502314 -2.198474 3.026077 10.881595 -15.962613 -5.881174 -2.191343 -0.195722 0.472351 0.000000 0.000000 0.000000 -2.158226 13.604340 -0.729795 -58.635697 -1.357041 -12.008719 -1.969062 -52.775305 -0.015006 16.152885 -7.880182 -1.157505 -0.212450 0.173353 -0.000000 0.000000 0.000000 0.000000 0.000000 0.000000 0.000000 11.285978 -13.745394 -0.928298 57.252366 -6.713483 -29.035988 1.729818 48.113502 -0.002566 -12.810869 12.915006 -1.499182 0.180889 -0.208102 -0.000000 0.000000 0.000000 0.000000 0.000000 0.000000 0.000000 
2.528448 17.304197 2.093534 -6.965311 -71.921023 13.493524 -0.973203 -2.238630 -4.779384 -0.763070 -2.310082 -3.068591 -5.487087 -2.332045 3.069503 10.837499 -16.185449 -6.007045 -2.224134 -0.196974 0.442749 0.000000 0.000000 0.000000 -2.141478 13.681253 -0.697567 -58.757696 -0.786665 -12.723818 -1.992580 -52.677338 -0.014410 16.199553 -7.819184 -1.151419 -0.212132 0.169620 -0.000000 0.000000 0.000000 0.000000 0.000000 0.000000 0.000000 11.494784 -14.013469 -0.946366 57.141805 -6.887979 -29.128363 1.746006 48.126656 -0.002104 -12.756067 12.878685 -1.488790 0.182743 -0.208137 -0.000000 0.000000 0.000000 0.000000 0.000000 0.000000 0.000000 
2.538933 17.318011 2.136316 -7.510013 -72.431919 14.234510 -0.637905 -2.347662 -4.840325 -0.683185 -2.445882 -3.075588 -5.472712 -2.467064 3.110670 10.798703 -16.393392 -6.166960 -2.253303 -0.197633 0.405491 0.000000 0.000000 0.000000 -2.113788 13.755675 -0.651219 -58.856385 -0.169030 -13.473437 -2.013205 -52.604604 -0.013886 16.281309 -7.751803 -1.146833 -0.211922 0.165779 -0.000000 0.000000 0.000000 0.000000 0.000000 0.000000 0.000000 11.693632 -14.252938 -0.951517 56.988129 -7.004657 -29.191710 1.758319 48.206572 -0.001741 -12.709677 12.855264 -1.480997 0.184475 -0.208577 -0.000000 0.000000 0.000000 0.000000 0.000000 0.000000 0.000000 
2.550001 17.332888 2.178685 -8.135407 -73.045434 15.171174 -0.269202 -2.452238 -4.953341 -0.595877 -2.580792 -3.094881 -5.458970 -2.601699 3.149218 10.764437 -16.587646 -6.360711 -2.278245 -0.197652 0.360557 0.000000 0.000000 0.000000 -2.074827 13.819276 -0.590807 -58.942078 0.493044 -14.255080 -2.031220 -52.539917 -0.013432 16.402526 -7.675029 -1.143549 -0.211745 0.161736 -0.000000 0.000000 0.000000 0.000000 0.000000 0.000000 0.000000 11.877942 -14.465546 -0.942270 56.794928 -7.057848 -29.230578 1.766943 48.344574 -0.001495 -12.675161 12.839369 -1.475503 0.186117 -0.209396 -0.000000 0.000000 0.000000 0.000000 0.000000 0.000000 0.000000 
2.561917 17.348668 2.220718 -8.873679 -73.752710 16.337664 0.137000 -2.550349 -5.115836 -0.500533 -2.713233 -3.125932 -5.445595 -2.734220 3.185674 10.734660 -16.769691 -6.588265 -2.298200 -0.196955 0.307783 0.000000 0.000000 0.000000 -2.020599 13.870252 -0.516637 -59.027468 1.185326 -15.061346 -2.047252 -52.460480 -0.013060 16.565163 -7.586871 -1.141266 -0.211543 0.157481 -0.000000 0.000000 0.000000 0.000000 0.000000 0.000000 0.000000 12.044070 -14.653609 -0.917920 56.567448 -7.043510 -29.247627 1.771849 48.534653 -0.001390 -12.655680 12.823818 -1.471808 0.187708 -0.210576 -0.000000 0.000000 0.000000 0.000000 0.000000 0.000000 0.000000 
2.575131 17.365052 2.262451 -9.762941 -74.544337 17.770155 0.583149 -2.639876 -5.321769 -0.397053 -2.841367 -3.168149 -5.432712 -2.862629 3.218208 10.709011 -16.938567 -6.847447 -2.312873 -0.195525 0.247510 0.000000 0.000000 0.000000 -1.946804 13.895522 -0.428807 -59.121765 1.909876 -15.887070 -2.060991 -52.358657 -0.012789 16.767220 -7.481044 -1.138686 -0.211217 0.152992 -0.000000 0.000000 0.000000 0.000000 0.000000 0.000000 0.000000 12.187965 -14.816733 -0.877125 56.313165 -6.963426 -29.246431 1.772919 48.775239 -0.001439 -12.651909 12.800732 -1.469112 0.189271 -0.212094 -0.000000 0.000000 0.000000 0.000000 0.000000 0.000000 0.000000 
2.590183 17.381640 2.303723 -10.841850 -75.411499 19.497132 1.065206 -2.718643 -5.553317 -0.286866 -2.962582 -3.217143 -5.420905 -2.983993 3.250523 10.692381 -17.097300 -7.141341 -2.321092 -0.193162 0.178368 0.000000 0.000000 0.000000 -1.841503 13.921297 -0.327997 -59.237955 2.608571 -16.711212 -2.074303 -52.191514 -0.012649 17.002769 -7.360384 -1.135711 -0.210790 0.148530 -0.000000 0.000000 0.000000 0.000000 0.000000 0.000000 0.000000 12.313177 -14.959020 -0.821398 56.038115 -6.810963 -29.224135 1.769652 49.064162 -0.001678 -12.666546 12.763927 -1.466918 0.190806 -0.213932 -0.000000 0.000000 0.000000 0.000000 0.000000 0.000000 0.000000 
2.606688 17.398269 2.344781 -12.170960 -76.332904 21.597230 1.588874 -2.787188 -5.833401 -0.168879 -3.078420 -3.281135 -5.409927 -3.100083 3.269831 10.676662 -17.233742 -7.454711 -2.324957 -0.190267 0.104588 0.000000 0.000000 0.000000 -1.713114 13.863961 -0.213398 -59.368181 3.400330 -17.547175 -2.082496 -52.034789 -0.012627 17.262928 -7.201276 -1.127841 -0.209948 0.143691 -0.000000 0.000000 0.000000 0.000000 0.000000 0.000000 0.000000 12.405795 -15.068095 -0.745890 55.752673 -6.620727 -29.190229 1.762692 49.411129 -0.002078 -12.689835 12.705932 -1.463423 0.192368 -0.216055 -0.000000 0.000000 0.000000 0.000000 0.000000 0.000000 0.000000 
